<svg width="167" height="27" viewBox="0 0 167 27" fill="none" xmlns="http://www.w3.org/2000/svg">
<path d="M20.0125 0.496637V4.91974H6.30067V11.1014L18.3638 11.0621V15.4588L6.30067 15.5068L6.59645 26.076H1.17859L0.882812 0.496637H20.0125Z" fill="#212121"/>
<path d="M39.448 0.496637C41.0586 0.496637 42.5033 0.786773 43.7823 1.36705C45.0613 1.94732 46.0679 2.81181 46.8021 3.96051C47.5481 5.10922 47.9212 6.49477 47.9212 8.11716C47.9212 9.72772 47.5778 11.1014 46.8909 12.2383C46.204 13.3751 45.2685 14.2396 44.0843 14.8318C42.9119 15.412 41.5974 15.7022 40.1408 15.7022H39.0394L48.0988 25.5431V26.076H42.0237L32.6446 15.6133H32.2893V26.076H26.9248V0.496637H39.448ZM38.5954 11.6166C39.827 11.6166 40.804 11.3324 41.5263 10.7639C42.2606 10.1836 42.6277 9.34876 42.6277 8.25927C42.6277 7.16978 42.2606 6.34082 41.5263 5.77239C40.804 5.20396 39.827 4.91974 38.5954 4.91974H32.2893V11.6166H38.5954Z" fill="#212121"/>
<path d="M68.7502 0.496637L77.4898 25.5431V26.076H72.0009L70.0114 20.0364H60.4191L58.4474 26.076H53.0828V25.5431L61.8225 0.496637H68.7502ZM68.6081 15.5068L65.3574 5.59475H65.0732L61.8402 15.5068H68.6081Z" fill="#212121"/>
<path d="M88.9795 0.496637L97.3994 20.2674H97.6836L106.104 0.496637H112.321V26.076H107.382V9.39613H107.098L99.9929 26.076H94.9836L87.8782 9.39613H87.594V26.076H82.6558V0.496637H88.9795Z" fill="#212121"/>
<path d="M138.836 0.496637V4.91974H125.762V10.9771H137.06V15.4002H125.762V21.6529H139.085V26.076H120.344V0.496637H138.836Z" fill="#212121"/>
<path d="M145.356 7.49544C145.356 6.01515 145.741 4.71842 146.511 3.60524C147.292 2.49207 148.441 1.62758 149.957 1.01178C151.484 0.384134 153.332 0.0703125 155.499 0.0703125C157.678 0.0703125 159.549 0.390055 161.112 1.02954C162.675 1.66902 163.877 2.5868 164.718 3.78288C165.571 4.97895 166.051 6.40003 166.157 8.04611V8.57901H161.077C161.006 7.05135 160.473 5.95002 159.478 5.27501C158.495 4.6 157.187 4.26249 155.552 4.26249C154.013 4.26249 152.811 4.52894 151.946 5.06185C151.082 5.59475 150.65 6.35266 150.65 7.33557C150.65 8.28296 151.011 8.99942 151.733 9.48495C152.467 9.97048 153.586 10.3376 155.09 10.5863L158.004 11.0837C159.875 11.4034 161.42 11.8653 162.64 12.4692C163.872 13.0613 164.807 13.8607 165.447 14.8673C166.086 15.8739 166.406 17.1351 166.406 18.6509C166.406 20.2141 166.009 21.5878 165.216 22.772C164.422 23.9563 163.244 24.874 161.681 25.5254C160.118 26.1767 158.223 26.5024 155.996 26.5024C153.746 26.5024 151.786 26.1708 150.117 25.5076C148.447 24.8326 147.15 23.8852 146.226 22.6654C145.315 21.4338 144.823 19.995 144.752 18.3489V17.816H149.832C149.963 19.3674 150.567 20.5042 151.644 21.2266C152.734 21.949 154.155 22.3102 155.908 22.3102C157.565 22.3102 158.844 22.0141 159.744 21.422C160.656 20.8299 161.112 19.995 161.112 18.9173C161.112 18.2187 160.941 17.6561 160.597 17.2298C160.254 16.8035 159.756 16.466 159.105 16.2173C158.454 15.9686 157.595 15.7555 156.529 15.5778L153.616 15.0982C150.892 14.6364 148.832 13.7896 147.434 12.558C146.049 11.3146 145.356 9.62706 145.356 7.49544Z" fill="#212121"/>
</svg>
